<svg id="圖層_1" data-name="圖層 1" xmlns="http://www.w3.org/2000/svg" viewBox="0 0 347.68 62.56"><defs><style>.cls-1{fill:#fff;}</style></defs><title>footer-01</title><path class="cls-1" d="M596.78,412.73c.24-1.36.72-2.08,1.36-2.08s1.12.4,2.16,2.48l21.84,44.48,21.76-45c.64-1.28,1-1.92,1.76-1.92s1.2.8,1.44,2.48l7.28,49c.72,5,1.52,7.36,3.92,8.08a16,16,0,0,0,5,.8c.72,0,1.28.08,1.28.56,0,.64-1,.88-2.08.88-2,0-13-.16-16.24-.4-1.84-.16-2.32-.4-2.32-.88s.32-.64.88-.88.72-1.2.4-3.44l-4.8-34.8h-.32l-17.44,35.68c-1.84,3.76-2.24,4.48-3,4.48s-1.52-1.6-2.8-4c-1.92-3.68-8.24-15.92-9.2-18.16-.72-1.68-5.52-11.12-8.32-17.12H599l-4.16,31.2a31.65,31.65,0,0,0-.24,3.76c0,1.52,1,2.24,2.4,2.56a15.46,15.46,0,0,0,3.36.4c.64,0,1.2.16,1.2.56,0,.72-.72.88-1.92.88-3.36,0-7-.24-8.4-.24s-5.36.24-7.92.24c-.8,0-1.44-.16-1.44-.88,0-.4.48-.56,1.28-.56a10.28,10.28,0,0,0,2.4-.24c2.24-.48,2.88-3.6,3.28-6.32Z" transform="translate(-581.9 -410.65)"/><path class="cls-1" d="M681.26,451.85c-.4,0-.56.16-.72.64l-4.32,11a15.52,15.52,0,0,0-1.2,4.88c0,1.44.72,2.48,3.2,2.48h1.2c1,0,1.2.16,1.2.64,0,.64-.48.8-1.36.8-2.56,0-6-.24-8.48-.24-.88,0-5.28.24-9.44.24-1,0-1.52-.16-1.52-.8,0-.48.32-.64,1-.64a24.23,24.23,0,0,0,2.48-.16c3.68-.48,5.2-3.2,6.8-7.2l20.08-49.6c1-2.32,1.44-3.2,2.24-3.2s1.2.72,2,2.56c1.92,4.4,14.72,36.4,19.84,48.56,3,7.2,5.36,8.32,7,8.72a17.55,17.55,0,0,0,3.36.32c.64,0,1,.08,1,.64s-.72.8-3.68.8-8.72,0-15.12-.16c-1.44-.08-2.4-.08-2.4-.64s.32-.64,1.12-.72a1.3,1.3,0,0,0,.72-1.84l-6.4-16.48a.77.77,0,0,0-.8-.56Zm16.32-4c.4,0,.48-.24.4-.48l-7.2-19.68c-.08-.32-.16-.72-.4-.72s-.4.4-.48.72l-7.36,19.6c-.08.32,0,.56.32.56Z" transform="translate(-581.9 -410.65)"/><path class="cls-1" d="M738.54,461.37c.16,6.24,1.2,8.32,2.8,8.88a12.71,12.71,0,0,0,4.16.56c.88,0,1.36.16,1.36.64,0,.64-.72.8-1.84.8-5.2,0-8.4-.24-9.92-.24-.72,0-4.48.24-8.64.24-1,0-1.76-.08-1.76-.8,0-.48.48-.64,1.28-.64a14.19,14.19,0,0,0,3.6-.4c2.08-.64,2.4-3,2.48-9.92l.72-47.12c0-1.6.24-2.72,1-2.72s1.6,1,3,2.48c1,1,13.12,13.84,24.8,25.44,5.44,5.44,16.24,17,17.6,18.24h.4l-.8-35.92c-.08-4.88-.8-6.4-2.72-7.2a13.05,13.05,0,0,0-4.24-.48c-1,0-1.28-.24-1.28-.72,0-.64.88-.72,2.08-.72,4.16,0,8,.24,9.68.24.88,0,3.92-.24,7.84-.24,1,0,1.84.08,1.84.72q0,.72-1.44.72a8.71,8.71,0,0,0-2.4.24c-2.24.64-2.88,2.32-3,6.8l-.88,50.48c0,1.76-.32,2.48-1,2.48-.88,0-1.84-.88-2.72-1.76-5-4.8-15.28-15.28-23.6-23.52-8.72-8.64-17.6-18.4-19-19.92h-.24Z" transform="translate(-581.9 -410.65)"/><path class="cls-1" d="M809.82,435c0-12.16,0-14.4-.16-17-.16-2.72-.8-4-3.44-4.56a16.45,16.45,0,0,0-3.12-.24c-.88,0-1.36-.16-1.36-.72s.56-.72,1.76-.72c4.24,0,9.28.24,11.52.24,2.48,0,7.52-.24,12.32-.24,10,0,23.36,0,32.08,9.12,4,4.16,7.76,10.8,7.76,20.32a31.78,31.78,0,0,1-8.72,22.32c-3.68,3.76-12,9.44-26.8,9.44-2.88,0-6.16-.24-9.2-.48s-5.84-.48-7.84-.48c-.88,0-2.64,0-4.56.08s-3.92.16-5.52.16c-1,0-1.6-.24-1.6-.8,0-.4.32-.64,1.28-.64a13.06,13.06,0,0,0,2.88-.32c1.6-.32,2-2.08,2.32-4.4.4-3.36.4-9.68.4-17Zm10,8.8c0,8.48.08,14.64.16,16.16.08,2,.24,5.2.88,6.08,1,1.52,4.16,3.2,10.48,3.2,8.16,0,13.6-1.6,18.4-5.76,5.12-4.4,6.72-11.68,6.72-19.92,0-10.16-4.24-16.72-7.68-20-7.36-7-16.48-8-22.72-8a21.36,21.36,0,0,0-5.2.56,1.45,1.45,0,0,0-1,1.6c-.08,2.72-.08,9.68-.08,16Z" transform="translate(-581.9 -410.65)"/><path class="cls-1" d="M893.65,451.53a17,17,0,0,0-1.84-8.4c-.56-1.28-11.28-18.88-14.08-23a19.56,19.56,0,0,0-5.52-5.84,8.14,8.14,0,0,0-3.36-1c-.64,0-1.2-.16-1.2-.72s.56-.72,1.52-.72c1.44,0,7.44.24,10.08.24,1.68,0,5-.24,8.56-.24q1.2,0,1.2.72c0,.48-.55.56-1.76.88a1.45,1.45,0,0,0-1.12,1.44,7.39,7.39,0,0,0,1,2.72c1.12,2.4,12.33,21.68,13.61,23.92.8-1.92,10.88-19.52,12-22a10.42,10.42,0,0,0,1.12-4.16,1.91,1.91,0,0,0-1.69-2c-.71-.16-1.43-.32-1.43-.8s.39-.72,1.35-.72c2.65,0,5.2.24,7.53.24,1.75,0,7-.24,8.56-.24.88,0,1.44.16,1.44.64s-.64.8-1.52.8a8.65,8.65,0,0,0-3.52,1c-1.68.8-2.56,1.76-4.33,3.92-2.63,3.2-13.83,22-15.28,25.44a19.29,19.29,0,0,0-1.19,8v6.56c0,1.28,0,4.64.23,8,.16,2.32.89,4.08,3.28,4.4a33.85,33.85,0,0,0,4,.32c.88,0,1.29.24,1.29.64,0,.56-.64.8-1.68.8-5,0-10.09-.24-12.24-.24s-7,.24-10,.24c-1.12,0-1.76-.16-1.76-.8,0-.4.4-.64,1.28-.64a12.86,12.86,0,0,0,2.8-.32c1.61-.32,2.32-2.08,2.49-4.4.23-3.36.23-6.72.23-8Z" transform="translate(-581.9 -410.65)"/></svg>